#!OML:ASF E:\motion texture\Top Level 1\Subject 1\Session 1\male.ASF
:FULLY-SPECIFIED
:DEGREES
363
root -11.0415 18.0439 5.10603 17.1193 -75.035 -12.537
lowerback 0.199483 3.56859 -0.309662
upperback -1.23195 4.76429 1.04383
thorax -1.48795 2.38949 1.16605
lowerneck -16.8406 -5.03548 -7.86162
upperneck 11.2089 -6.75512 11.2386
head 6.85186 -2.69219 4.19037
rclavicle 2.54662e-014 4.96962e-016
rhumerus -29.2966 -1.14169 -84.7694
rradius 32.6664
rwrist 11.4407
rhand -19.7497 -41.1363
rfingers 7.12502
rthumb 6.58144 -71.014
lclavicle 2.54662e-014 4.96962e-016
lhumerus -35.9629 17.5808 80.1157
lradius 32.8161
lwrist -27.1699
lhand -12.4165 19.1362
lfingers 7.12502
lthumb 13.6556 48.6682
rfemur -26.9887 -10.929 17.7812
rtibia 42.6756
rfoot -4.80011 -20.7621
rtoes 8.00283
lfemur -8.41466 -9.67079 -17.1166
ltibia 18.1756
lfoot -10.1561 -0.105337
ltoes -6.85748
364
root -11.156 18.0417 5.10511 16.9958 -75.2529 -12.3132
lowerback 0.216349 3.41771 -0.425456
upperback -1.2467 4.5627 1.11563
thorax -1.52265 2.29066 1.30516
lowerneck -16.8919 -4.8455 -7.70748
upperneck 11.2427 -6.49759 11.0385
head 6.83211 -2.5754 4.12964
rclavicle 4.43756e-014 -7.72775e-015
rhumerus -30.2099 -3.09752 -84.0488
rradius 30.7458
rwrist 12.2084
rhand -19.2446 -40.7983
rfingers 7.12502
rthumb 7.06907 -70.6603
lclavicle 4.43756e-014 -7.72775e-015
lhumerus -35.6098 16.8849 80.4538
lradius 33.5115
lwrist -26.7524
lhand -12.4667 19.1286
lfingers 7.12502
lthumb 13.6072 48.6638
rfemur -27.1856 -10.6296 17.5177
rtibia 41.0751
rfoot -4.83926 -20.7463
rtoes 7.9036
lfemur -7.97438 -9.61614 -17.1889
ltibia 18.0134
lfoot -10.3994 0.0482537
ltoes -7.19522
365
root -11.2703 18.0391 5.10328 16.8825 -75.4787 -12.0952
lowerback 0.231895 3.27165 -0.535235
upperback -1.26051 4.36753 1.18599
thorax -1.55398 2.195 1.43987
lowerneck -16.9424 -4.65482 -7.55037
upperneck 11.2713 -6.23949 10.8369
head 6.81136 -2.45847 4.0678
rclavicle -6.53825e-014 4.03781e-017
rhumerus -31.1217 -5.13658 -83.1508
rradius 28.9102
rwrist 13.1578
rhand -18.7315 -40.438
rfingers 7.12502
rthumb 7.56427 -70.2827
lclavicle -6.53825e-014 4.03781e-017
lhumerus -35.2794 16.2427 80.7135
lradius 34.2171
lwrist -26.343
lhand -12.512 19.1349
lfingers 7.12502
lthumb 13.5636 48.6731
rfemur -27.3583 -10.3149 17.2648
rtibia 39.4605
rfoot -4.83843 -20.7167
rtoes 7.77576
lfemur -7.54506 -9.55862 -17.2562
ltibia 17.8607
lfoot -10.6356 0.202579
ltoes -7.54672
366
root -11.3846 18.0361 5.10049 16.7786 -75.7124 -11.883
lowerback 0.24655 3.13112 -0.639378
upperback -1.27351 4.17971 1.25482
thorax -1.58252 2.10298 1.57021
lowerneck -16.9904 -4.46413 -7.39116
upperneck 11.2945 -5.98175 10.6345
head 6.78941 -2.34191 4.00509
rclavicle -3.29563e-014 1.46604e-015
rhumerus -32.0465 -7.24853 -82.0736
rradius 27.1683
rwrist 14.292
rhand -18.2213 -40.0534
rfingers 7.12502
rthumb 8.05678 -69.8799
lclavicle -3.29563e-014 1.46604e-015
lhumerus -34.9698 15.6527 80.8993
lradius 34.9263
lwrist -25.942
lhand -12.5516 19.1577
lfingers 7.12502
lthumb 13.5254 48.6985
rfemur -27.5069 -9.98603 17.0235
rtibia 37.8428
rfoot -4.80073 -20.6793
rtoes 7.62722
lfemur -7.12655 -9.49742 -17.3187
ltibia 17.7176
lfoot -10.8629 0.35689
ltoes -7.91937
367
root -11.4987 18.0327 5.09679 16.6823 -75.9536 -11.6759
lowerback 0.260404 2.99587 -0.737407
upperback -1.28577 3.99892 1.3217
thorax -1.60842 2.0144 1.6954
lowerneck -17.036 -4.27337 -7.22931
upperneck 11.3136 -5.72451 10.4308
head 6.76668 -2.22573 3.94129
rclavicle 4.7553e-015 5.96354e-015
rhumerus -32.9987 -9.42075 -80.8173
rradius 25.528
rwrist 15.6131
rhand -17.7118 -39.6555
rfingers 7.12502
rthumb 8.54849 -69.4624
lclavicle 4.7553e-015 5.96354e-015
lhumerus -34.6785 15.1132 81.0165
lradius 35.633
lwrist -25.5464
lhand -12.5889 19.2037
lfingers 7.12502
lthumb 13.4894 48.7468
rfemur -27.6319 -9.64535 16.7942
rtibia 36.2331
rfoot -4.72738 -20.6365
rtoes 7.47777
lfemur -6.71782 -9.4329 -17.3771
ltibia 17.585
lfoot -11.0813 0.510236
ltoes -8.31209
368
root -11.613 18.0291 5.09213 16.5944 -76.2008 -11.4747
lowerback 0.272705 2.86574 -0.829967
upperback -1.29734 3.82495 1.38699
thorax -1.63153 1.92917 1.81619
lowerneck -17.0782 -4.08266 -7.06554
upperneck 11.3282 -5.46793 10.2268
head 6.74296 -2.11001 3.87682
rclavicle 3.0442e-014 -8.54774e-015
rhumerus -33.9917 -11.6343 -79.3848
rradius 23.9953
rwrist 17.1086
rhand -17.2141 -39.2511
rfingers 7.12502
rthumb 9.02871 -69.0379
lclavicle 3.0442e-014 -8.54774e-015
lhumerus -34.405 14.6243 81.0682
lradius 36.3323
lwrist -25.1573
lhand -12.6198 19.2619
lfingers 7.12502
lthumb 13.4597 48.807
rfemur -27.7333 -9.29296 16.5782
rtibia 34.6394
rfoot -4.6188 -20.5918
rtoes 7.34602
lfemur -6.31952 -9.36574 -17.4306
ltibia 17.4649
lfoot -11.2912 0.661988
ltoes -8.72586
369
root -11.7275 18.0252 5.08651 16.5184 -76.4544 -11.284
lowerback 0.284408 2.74101 -0.916119
upperback -1.30864 3.65819 1.45072
thorax -1.65287 1.84747 1.93194
lowerneck -17.116 -3.89202 -6.90011
upperneck 11.3386 -5.21218 10.023
head 6.71823 -1.99482 3.81189
rclavicle -1.93007e-014 -8.84592e-015
rhumerus -35.0389 -13.8707 -77.7794
rradius 22.5748
rwrist 18.7643
rhand -16.7347 -38.837
rfingers 7.12502
rthumb 9.49128 -68.6032
lclavicle -1.93007e-014 -8.84592e-015
lhumerus -34.1504 14.1794 81.0592
lradius 37.0208
lwrist -24.7712
lhand -12.6446 19.3238
lfingers 7.12502
lthumb 13.4358 48.8705
rfemur -27.811 -8.92708 16.376
rtibia 33.0666
rfoot -4.473 -20.5482
rtoes 7.23889
lfemur -5.93063 -9.29661 -17.4782
ltibia 17.358
lfoot -11.491 0.813539
ltoes -9.15974
370
root -11.8421 18.0211 5.07991 16.4584 -76.7137 -11.1088
lowerback 0.29326 2.62138 -0.995302
upperback -1.31775 3.49824 1.51348
thorax -1.66933 1.76906 2.0431
lowerneck -17.1512 -3.70152 -6.73257
upperneck 11.3447 -4.95714 9.81824
head 6.69269 -1.8801 3.74605
rclavicle 4.09993e-014 6.36111e-015
rhumerus -36.1469 -16.1071 -76.0089
rradius 21.2677
rwrist 20.5624
rhand -16.278 -38.4164
rfingers 7.12502
rthumb 9.932 -68.1621
lclavicle 4.09993e-014 6.36111e-015
lhumerus -33.9097 13.7848 80.9932
lradius 37.6916
lwrist -24.3965
lhand -12.6653 19.3932
lfingers 7.12502
lthumb 13.4158 48.9412
rfemur -27.8657 -8.54889 16.1895
rtibia 31.52
rfoot -4.29263 -20.5107
rtoes 7.14839
lfemur -5.55046 -9.22663 -17.519
ltibia 17.2649
lfoot -11.6803 0.965586
ltoes -9.6186
371
root -11.9571 18.0169 5.07232 16.415 -76.9781 -10.9497
lowerback 0.300808 2.50726 -1.06748
upperback -1.32742 3.34567 1.57425
thorax -1.68467 1.69424 2.14838
lowerneck -17.1797 -3.51142 -6.56157
upperneck 11.347 -4.70388 9.61315
head 6.66592 -1.76637 3.67918
rclavicle 7.88927e-015 -1.76918e-014
rhumerus -37.3288 -18.3198 -74.0832
rradius 20.0772
rwrist 22.478
rhand -15.837 -37.9953
rfingers 7.12502
rthumb 10.3574 -67.7202
lclavicle 7.88927e-015 -1.76918e-014
lhumerus -33.6876 13.4368 80.8722
lradius 38.3422
lwrist -24.035
lhand -12.6787 19.4613
lfingers 7.12502
lthumb 13.4029 49.0102
rfemur -27.8986 -8.15961 16.0196
rtibia 30.0082
rfoot -4.08285 -20.4826
rtoes 7.06581
lfemur -5.17975 -9.15612 -17.5525
ltibia 17.1871
lfoot -11.8585 1.11728
ltoes -10.0993
